<?xml version="1.0" encoding="utf-8"?>
<!-- Generator: Adobe Illustrator 25.1.0, SVG Export Plug-In . SVG Version: 6.00 Build 0)  -->
<svg version="1.1" id="Capa_1" xmlns="http://www.w3.org/2000/svg" xmlns:xlink="http://www.w3.org/1999/xlink" x="0px" y="0px"
	 viewBox="0 0 792 612" style="enable-background:new 0 0 792 612;" xml:space="preserve">
<style type="text/css">
	.st0{fill:#4F772D;stroke:#ADC178;stroke-width:1.1774;stroke-miterlimit:10;}
	.st1{fill:#FFFFFF;}
	.st2{fill:#FFFFFF;stroke:#FFFFFF;stroke-width:0.9;stroke-miterlimit:10;}
</style>
<g id="Capa_2_1_">
	<ellipse class="st0" cx="368.2" cy="317.2" rx="298.9" ry="285.6"/>
</g>
<g id="Capa_1_1_">
	<g>
		<path class="st1" d="M183.1,419.6V215.9l58.6,78c1.3-9.3,5-18,8.6-26.8l-63.4-83.8h-51v9.4c26.8,0,35.9,7.2,35.9,26.1v200.7
			c0,18.9-9.1,26.1-35.9,26.1v9.5h86.6v-9.5C191.5,445.7,183.1,438.5,183.1,419.6z"/>
		<path class="st1" d="M355.5,201.5c2.7,3.1,3.8,7.1,3.8,12.1v197.3L256.6,275.4c-3.4,8.4-6.5,16.9-6.4,26.2c0,1.1-0.3,2-0.8,2.6
			L364.2,457h6V213.6c0-4.6,1.2-8.4,3.6-11.4C367.7,202,361.6,201.7,355.5,201.5z"/>
	</g>
	<g>
		<path class="st2" d="M465.3,262.1c0,42.7-17.4,46.5-42.3,46.5h-53.9c-0.3,0.4-0.6,0.7-1,1c0.1,0.4,0.1,0.8,0.1,1.2v8.2h54.3
			c25.3,0,42.7,11.9,42.7,51.1h9.1V262.1H465.3z"/>
	</g>
	<g>
		<path class="st1" d="M319.8,187.4c-11.5,6.2-22.2,13.5-31.6,22.1c-4.7,4.3-9,8.9-12.9,13.7c-3.9,4.9-7.5,10-10.6,15.4l-0.2,0.3
			l-0.6,0.6l-2.6,2.8l1-1.3c-2.2,4.3-4.3,8.6-6.3,13c-2,4.4-3.8,8.8-5.4,13.2c-3.3,9-6,17.8-7.4,27c-0.8,4.6-1.3,9.2-1.6,13.8
			c-0.2,4.6-0.4,9.3-0.1,13.9c0,1.2,0.1,2.3,0.2,3.5c0.1,1.2,0.2,2.3,0.3,3.5l0.4,3.5l0.5,3.5c0.7,4.6,1.6,9.1,2.8,13.8l1.8,7
			c0.6,2.3,1.4,4.5,2,6.8c0.7,2.3,1.5,4.5,2.3,6.7c0.8,2.2,1.7,4.4,2.6,6.6c3.5,8.8,7.9,17.3,12.8,25.5
			c9.9,16.4,22.6,31.3,37.4,44.6c-17.5-9.4-33.1-22.9-45.5-39c-6.2-8-11.6-16.8-16.2-25.9c-1.1-2.3-2.2-4.6-3.2-7
			c-1-2.4-2-4.7-2.9-7.1c-0.9-2.4-1.8-4.8-2.5-7.3l-2.2-7.3l-1.1-3.7c-0.3-1.2-0.6-2.5-0.9-3.8c-0.3-1.3-0.6-2.5-0.8-3.8
			c-0.2-1.3-0.6-2.5-0.8-3.8c-1-5.1-1.5-10.3-1.9-15.5c-0.6-10.4,0-20.9,1.9-31.2c0.9-5.1,2.2-10.2,3.8-15.2c0.8-2.5,1.6-5,2.6-7.3
			c0.9-2.4,1.9-4.8,2.9-7.1c4-9.4,8.9-18.4,14.2-26.9l0.6-0.9l0.4-0.4l2.8-2.6l-0.8,1c3.9-5.6,8.4-10.9,13.2-15.6
			c4.8-4.8,10.1-9.1,15.6-12.9C294.8,196.3,307.1,190.7,319.8,187.4z"/>
	</g>
	<g>
		<path class="st1" d="M315.8,189.1c12-4.8,24.5-8.2,37.2-10.5c6.4-1.1,12.8-2.1,19.4-2.6c6.5-0.6,13.1-0.8,19.6-0.7
			c6.5,0,13,0.3,19.4,0.7c6.4,0.4,12.8,0.9,19.2,1.4c6.4,0.5,12.7,1.1,19.1,1.7l19.1,1.9l19,2.1l18.9,2.4l0.9,0.1l1.1,0.1l2.3,0.1
			c1.5,0.1,3.1,0.2,4.6,0.2c1.5,0.1,3.1,0.1,4.6,0.1s3.1,0.1,4.7,0.1c6.2,0,12.4-0.2,18.6-0.6c24.9-1.6,49.7-6.6,74.6-13.1
			c-11.2,6.2-23.2,11.4-35.4,15.6c-12.3,4.2-25,7.3-37.9,9.3l-2.4,0.4L540,198c-1.6,0.2-3.2,0.4-4.9,0.6l-4.9,0.5l-4.9,0.3
			c-1.6,0.1-3.3,0.2-4.9,0.2c-1.6,0.1-3.3,0.1-4.9,0.1c-1.6,0-3.3,0-4.9,0l-2.5,0l-1.3,0c-0.5,0-1-0.1-1.5-0.1
			c-1.8-0.1-3.3-0.3-4.9-0.4l-4.8-0.5l-9.5-0.9l-19-2l-19-2.1c-6.3-0.8-12.7-1.5-19-2.3c-12.6-1.6-25.2-3.3-37.7-4.4
			c-6.2-0.6-12.5-1-18.7-1.2c-6.2-0.2-12.5-0.1-18.8,0.1c-6.3,0.2-12.6,0.6-19,1.1C328.6,187.6,322.2,188.2,315.8,189.1z"/>
	</g>
</g>
</svg>
